<svg width="160" height="86" viewBox="0 0 160 86" fill="none" xmlns="http://www.w3.org/2000/svg">
<path d="M141.475 28.976C120.984 24.4096 58.8203 10.513 33.9745 4.97596C5.71936 -1.3209 -6.66151 40.2201 24.5174 47.1685L64.7295 56.13C65.1966 56.2341 65.598 56.4994 65.8842 56.883L73.8619 67.5718C74.4535 68.3644 75.5356 68.6056 76.4078 68.1392L88.1706 61.8496C88.5927 61.6239 89.0653 61.5534 89.5324 61.6575L131.695 71.0538C156.053 76.4822 164.859 34.1873 141.475 28.976Z" fill="#4BA435"/>
<path d="M40.9334 34.7449L43.2021 24.5646L50.1711 26.1177L49.76 27.9624L44.909 26.8814L44.3335 29.464L48.5012 30.3928L48.0901 32.2376L43.9223 31.3088L43.0514 35.2169L40.9334 34.7449ZM51.3114 37.2298C50.7101 37.0958 50.2239 36.8536 49.8525 36.5031C49.4924 36.1455 49.2547 35.71 49.1396 35.1967C49.0245 34.6834 49.036 34.117 49.1741 33.4975L50.1821 28.9745L52.2318 29.4313L51.2603 33.7903C51.1974 34.0727 51.1962 34.3354 51.2568 34.5784C51.3286 34.8144 51.456 35.0149 51.6391 35.18C51.8223 35.3451 52.0459 35.4571 52.3101 35.516C52.5834 35.5769 52.8334 35.5705 53.0603 35.4967C53.2962 35.425 53.4921 35.2965 53.6482 35.1114C53.8153 34.9191 53.9304 34.6818 53.9933 34.3994L54.9647 30.0403L57.0145 30.4971L55.3517 37.9581L53.4387 37.5318L53.7675 36.056L53.8038 36.4083C53.5312 36.8161 53.1747 37.0857 52.7343 37.217C52.3049 37.3413 51.8307 37.3455 51.3114 37.2298ZM56.8498 38.292L58.5126 30.831L60.4256 31.2573L60.0967 32.7331L60.0605 32.3808C60.3331 31.973 60.684 31.707 61.1133 31.5827C61.5538 31.4514 62.0336 31.4436 62.5529 31.5593C63.1177 31.6852 63.5832 31.9132 63.9495 32.2435C64.3249 32.5757 64.5833 32.9823 64.7247 33.4633C64.8682 33.9351 64.877 34.4535 64.7511 35.0183L63.6822 39.8146L61.6325 39.3578L62.604 34.9987C62.6689 34.7072 62.6655 34.4435 62.5938 34.2076C62.5312 33.9737 62.4083 33.7742 62.2252 33.6091C62.0511 33.446 61.8275 33.334 61.5542 33.2731C61.29 33.2142 61.0399 33.2206 60.804 33.2924C60.5681 33.3641 60.3676 33.4915 60.2025 33.6747C60.0465 33.8598 59.936 34.0982 59.871 34.3897L58.8995 38.7488L56.8498 38.292ZM71.0974 41.6392C70.4415 41.4931 69.8929 41.2513 69.4517 40.9139C69.0217 40.5695 68.7177 40.1527 68.5399 39.6636C68.362 39.1746 68.336 38.6476 68.4619 38.0828C68.5674 37.6091 68.7408 37.2174 68.9819 36.9078C69.2321 36.6002 69.5066 36.3554 69.8054 36.1733C70.1041 35.9913 70.3882 35.8538 70.6575 35.7608C70.938 35.6608 71.1648 35.587 71.3379 35.5395L72.4041 35.2608C72.7392 35.1729 73.0415 35.0825 73.3108 34.9895C73.5802 34.8965 73.8024 34.7787 73.9777 34.6361C74.164 34.4864 74.2836 34.2931 74.3364 34.0562C74.3973 33.7829 74.358 33.5303 74.2184 33.2984C74.0879 33.0685 73.8861 32.9231 73.6128 32.8622C73.3486 32.8034 73.0995 32.8483 72.8656 32.9969C72.6428 33.1385 72.4989 33.3551 72.4339 33.6466C72.3852 33.8652 72.3876 34.0905 72.4411 34.3223C72.4946 34.5542 72.5659 34.7709 72.6548 34.9724C72.7529 35.1759 72.8424 35.3537 72.9233 35.5056L76.9004 42.7604L74.5228 42.2305L71.2327 36.3336C71.0759 36.0501 70.9222 35.7529 70.7716 35.442C70.63 35.1331 70.5265 34.8041 70.4609 34.4548C70.4064 34.0984 70.4239 33.7198 70.5132 33.319C70.6371 32.7633 70.8757 32.3144 71.2292 31.9725C71.5848 31.6214 72.001 31.3843 72.4779 31.261C72.9548 31.1378 73.4437 31.132 73.9448 31.2437C74.4732 31.3615 74.9215 31.5809 75.2898 31.902C75.6581 32.2232 75.9216 32.607 76.0802 33.0535C76.2389 33.5001 76.2624 33.9739 76.1508 34.4749C76.0391 34.976 75.8252 35.3777 75.5092 35.6802C75.2043 35.9756 74.8615 36.2052 74.4808 36.369C74.1 36.5328 73.7456 36.6642 73.4176 36.7632L72.2921 37.1148C72.0876 37.1744 71.8633 37.2583 71.6193 37.3665C71.3752 37.4746 71.156 37.6218 70.9615 37.8079C70.7781 37.987 70.653 38.2269 70.586 38.5275C70.5068 38.8828 70.5532 39.1896 70.7251 39.4478C70.8991 39.6969 71.1774 39.8641 71.56 39.9494C71.7969 40.0022 72.0145 40.0125 72.213 39.9802C72.4134 39.9388 72.5942 39.8787 72.7552 39.7998C72.9182 39.7118 73.0595 39.6142 73.179 39.507C73.3076 39.4018 73.4196 39.3072 73.5148 39.2232L75.6282 37.2702L77.7053 37.7331L75.2149 40.2189C75.0295 40.4071 74.8072 40.6109 74.5479 40.8304C74.2998 41.0429 74.0091 41.2315 73.6759 41.3963C73.3428 41.5611 72.9641 41.6728 72.5399 41.7312C72.1157 41.7897 71.6348 41.759 71.0974 41.6392ZM86.0625 44.9743C85.3337 44.8119 84.6845 44.5286 84.1148 44.1243C83.5451 43.72 83.0762 43.2283 82.708 42.649C82.3399 42.0697 82.0948 41.4318 81.9727 40.7352C81.8506 40.0386 81.8738 39.3123 82.0424 38.5562C82.2109 37.8001 82.4937 37.1316 82.8909 36.5507C83.2901 35.9608 83.7738 35.4853 84.3419 35.1242C84.9121 34.754 85.5354 34.5104 86.2117 34.3934C86.8991 34.2693 87.6118 34.2895 88.3497 34.4539C89.0876 34.6184 89.7207 34.8886 90.2489 35.2645C90.7862 35.6424 91.2142 36.082 91.5327 36.5833C91.8513 37.0846 92.0413 37.6051 92.1028 38.1447L90.0297 38.6293C89.9662 38.0988 89.7514 37.6254 89.3852 37.2091C89.0301 36.7858 88.5428 36.5051 87.9234 36.367C87.3221 36.233 86.7623 36.2565 86.2438 36.4374C85.7254 36.6183 85.2828 36.9308 84.9161 37.375C84.5605 37.8121 84.3086 38.3632 84.1604 39.0282C84.0122 39.6932 84.0144 40.3057 84.1669 40.8656C84.3194 41.4255 84.5919 41.8974 84.9845 42.2814C85.3862 42.6673 85.8876 42.9273 86.4889 43.0613C86.9535 43.1648 87.4055 43.1747 87.8449 43.0909C88.2954 43.0001 88.6813 42.8136 89.0023 42.5313C89.3325 42.2511 89.5504 41.8741 89.656 41.4004L89.8448 40.5532L90.6323 41.5893L86.9428 40.7671L87.3387 38.9906L92.176 40.0687L91.9354 41.1482C91.7507 41.9772 91.4526 42.671 91.0413 43.2295C90.632 43.779 90.1493 44.2069 89.5934 44.5133C89.0485 44.8126 88.4668 44.9986 87.8482 45.0711C87.2408 45.1365 86.6456 45.1043 86.0625 44.9743ZM94.3121 46.8128C93.7746 46.693 93.3293 46.5029 92.9762 46.2426C92.623 45.9822 92.3772 45.6692 92.2387 45.3037C92.1023 44.929 92.0838 44.5185 92.1833 44.0721C92.2767 43.6531 92.4546 43.3054 92.7169 43.0292C92.9813 42.7439 93.3337 42.5356 93.7742 42.4042C94.2237 42.2749 94.7547 42.2307 95.3672 42.2716L97.7314 42.4112L97.3964 43.9143L95.4072 43.8296C95.1035 43.8193 94.859 43.8652 94.6737 43.9673C94.4904 44.0604 94.3714 44.2299 94.3166 44.4758C94.2658 44.7036 94.3128 44.9005 94.4574 45.0666C94.6021 45.2327 94.802 45.3442 95.057 45.401C95.3941 45.4762 95.7064 45.4693 95.994 45.3803C96.2815 45.2914 96.521 45.1392 96.7125 44.9237C96.9151 44.7011 97.0499 44.4395 97.1169 44.1389L97.5493 42.1985C97.6123 41.9161 97.5512 41.6538 97.3661 41.4118C97.1901 41.1718 96.9108 41.0091 96.5281 40.9238C96.1638 40.8426 95.818 40.8708 95.491 41.0082C95.173 41.1478 94.9137 41.3673 94.7131 41.6668L93.2469 40.5225C93.486 40.1359 93.7985 39.8278 94.1844 39.5983C94.5702 39.3687 95.0046 39.2217 95.4875 39.1572C95.9704 39.0927 96.4761 39.1193 97.0045 39.2371C97.633 39.3771 98.1634 39.6149 98.5954 39.9502C99.0275 40.2855 99.3299 40.6876 99.5028 41.1564C99.6867 41.6182 99.7188 42.1178 99.5991 42.6553L98.5027 47.5746L96.5897 47.1483L96.8577 45.9458L97.3405 45.9673C97.0488 46.2465 96.7465 46.466 96.4336 46.6258C96.1227 46.7764 95.7921 46.8653 95.4418 46.8925C95.0895 46.9287 94.7129 46.9021 94.3121 46.8128ZM100.006 47.9096L101.669 40.4486L103.582 40.875L103.177 42.6924L103.039 42.3461C103.276 41.7965 103.635 41.4318 104.115 41.2519C104.595 41.072 105.126 41.047 105.709 41.1769C106.329 41.315 106.835 41.5952 107.229 42.0176C107.633 42.4329 107.836 42.9179 107.837 43.4727L107.237 43.3964C107.619 42.8409 108.07 42.4681 108.591 42.2781C109.111 42.0881 109.676 42.0611 110.287 42.1971C110.824 42.3169 111.272 42.5409 111.629 42.8691C111.995 43.1993 112.249 43.6049 112.39 44.0859C112.534 44.5577 112.543 45.076 112.417 45.6409L111.348 50.4372L109.298 49.9804L110.269 45.6213C110.334 45.3298 110.336 45.0671 110.273 44.8332C110.219 44.6014 110.11 44.4049 109.945 44.2439C109.78 44.0828 109.561 43.9718 109.288 43.9109C109.024 43.852 108.778 43.8595 108.552 43.9332C108.334 44.009 108.147 44.1395 107.991 44.3247C107.844 44.5119 107.738 44.7512 107.673 45.0427L106.702 49.4018L104.652 48.945L105.623 44.5859C105.688 44.2944 105.69 44.0317 105.627 43.7978C105.573 43.566 105.464 43.3695 105.299 43.2085C105.134 43.0474 104.915 42.9364 104.642 42.8755C104.378 42.8166 104.132 42.8241 103.906 42.8978C103.688 42.9736 103.501 43.1041 103.345 43.2893C103.198 43.4765 103.092 43.7158 103.027 44.0073L102.056 48.3664L100.006 47.9096ZM116.254 51.7027C115.461 51.5261 114.812 51.1997 114.306 50.7236C113.802 50.2384 113.457 49.6642 113.27 49.001C113.083 48.3378 113.07 47.6463 113.23 46.9267C113.397 46.1796 113.709 45.5512 114.167 45.0412C114.634 44.5333 115.187 44.1738 115.827 43.9626C116.467 43.7514 117.143 43.725 117.853 43.8833C118.445 44.0153 118.948 44.2277 119.361 44.5205C119.775 44.8042 120.1 45.1491 120.335 45.5552C120.579 45.9633 120.733 46.4088 120.797 46.8917C120.864 47.3656 120.839 47.8621 120.723 48.3814C120.691 48.5271 120.649 48.6709 120.599 48.8125C120.559 48.9472 120.51 49.0605 120.451 49.1526L114.862 47.9071L115.197 46.404L119.625 47.3906L118.496 47.885C118.674 47.5136 118.747 47.1664 118.714 46.8434C118.683 46.5113 118.559 46.2303 118.342 46.0004C118.137 45.7634 117.852 45.6043 117.488 45.5231C117.132 45.4439 116.808 45.4624 116.514 45.5787C116.221 45.6949 115.972 45.9074 115.77 46.216C115.567 46.5246 115.426 46.9234 115.345 47.4123C115.216 47.8233 115.183 48.2034 115.249 48.5527C115.315 48.902 115.468 49.1992 115.71 49.4443C115.954 49.6804 116.276 49.843 116.677 49.9324C117.042 50.0136 117.367 50.0097 117.655 49.9208C117.952 49.8339 118.201 49.6792 118.404 49.4566L119.87 50.6009C119.643 50.9328 119.34 51.1999 118.96 51.4021C118.589 51.6064 118.173 51.7383 117.71 51.7977C117.249 51.8481 116.764 51.8164 116.254 51.7027ZM123.938 53.4151C123.118 53.2324 122.446 52.8817 121.921 52.3631C121.407 51.8374 121.113 51.2222 121.041 50.5176L122.702 50.142C122.804 50.5855 122.994 50.9576 123.271 51.2584C123.548 51.5593 123.887 51.7544 124.288 51.8437C124.58 51.9087 124.816 51.8992 124.997 51.8153C125.179 51.7314 125.293 51.5846 125.339 51.3751C125.364 51.2658 125.357 51.1686 125.318 51.0835C125.282 50.9894 125.216 50.8982 125.121 50.8101C125.026 50.722 124.901 50.6368 124.748 50.5548L123.556 49.9163C122.984 49.6071 122.577 49.2247 122.334 48.769C122.094 48.3042 122.032 47.8076 122.15 47.2793C122.253 46.8147 122.462 46.4357 122.776 46.1423C123.09 45.8489 123.483 45.6543 123.953 45.5584C124.426 45.4534 124.94 45.4628 125.496 45.5866C126.225 45.749 126.824 46.0642 127.294 46.5322C127.774 46.9931 128.059 47.5587 128.149 48.2289L126.474 48.6015C126.433 48.2674 126.288 47.9767 126.037 47.7296C125.797 47.4753 125.495 47.3076 125.131 47.2264C124.867 47.1675 124.645 47.1755 124.466 47.2503C124.295 47.3271 124.189 47.4612 124.146 47.6525C124.124 47.7527 124.131 47.8499 124.168 47.9441C124.204 48.0382 124.274 48.1304 124.378 48.2206C124.492 48.3128 124.633 48.4065 124.803 48.5018L125.913 49.122C126.492 49.4422 126.904 49.8257 127.149 50.2722C127.395 50.7097 127.459 51.1972 127.339 51.7347C127.235 52.1993 127.022 52.5773 126.699 52.8686C126.385 53.162 125.992 53.3612 125.519 53.4662C125.048 53.5621 124.521 53.5451 123.938 53.4151Z" fill="white"/>
</svg>
