<svg width="160" height="86" viewBox="0 0 160 86" fill="none" xmlns="http://www.w3.org/2000/svg">
<path d="M17.7211 56.1668C38.2112 60.7332 100.375 74.6297 125.221 80.1668C153.476 86.4636 165.857 44.9227 134.678 37.9742L94.4663 29.0127C93.9991 28.9086 93.5978 28.6433 93.3115 28.2597L85.3338 17.5709C84.7422 16.7783 83.6601 16.5371 82.7879 17.0035L71.0251 23.2931C70.603 23.5188 70.1304 23.5893 69.6633 23.4852L27.5007 14.089C3.14229 8.66052 -5.66295 50.9555 17.7211 56.1668Z" fill="#FF0000"/>
<path d="M112.084 49.0209L109.815 59.2012L107.697 58.7292L109.555 50.3937L105.25 49.4344L105.661 47.5897L112.084 49.0209ZM104.761 47.389L103.099 54.85L101.049 54.3932L102.712 46.9323L104.761 47.389ZM102.949 55.5196L102.492 57.5693L100.443 57.1125L100.9 55.0628L102.949 55.5196ZM98.8749 46.0772L100.15 54.1929L97.9364 53.6996L97.1581 47.6023L98.0053 47.7911L94.7115 52.9809L92.4978 52.4876L97.0985 45.6814L98.8749 46.0772ZM89.8344 43.8904C90.627 44.067 91.2762 44.3934 91.7821 44.8695C92.2859 45.3547 92.6313 45.9289 92.8182 46.5921C93.0051 47.2553 93.0183 47.9467 92.8579 48.6664C92.6915 49.4134 92.3793 50.0419 91.9214 50.5518C91.4544 51.0598 90.9009 51.4193 90.261 51.6305C89.6211 51.8417 88.9458 51.8681 88.2352 51.7098C87.6431 51.5778 87.1406 51.3654 86.7278 51.0726C86.3129 50.7889 85.9881 50.444 85.7535 50.0379C85.5098 49.6298 85.3556 49.1843 85.2912 48.7013C85.2246 48.2275 85.2492 47.731 85.3649 47.2117C85.3974 47.0659 85.439 46.9222 85.4897 46.7805C85.5293 46.6459 85.5784 46.5326 85.6372 46.4405L91.2261 47.686L90.8911 49.1891L86.4637 48.2024L87.5923 47.7081C87.4139 48.0795 87.3413 48.4267 87.3745 48.7497C87.4057 49.0817 87.5295 49.3627 87.746 49.5927C87.9514 49.8297 88.2363 49.9888 88.6007 50.07C88.956 50.1492 89.2804 50.1306 89.5741 50.0144C89.8677 49.8981 90.1159 49.6857 90.3185 49.3771C90.5212 49.0684 90.6627 48.6696 90.7429 48.1807C90.8728 47.7698 90.9049 47.3897 90.8393 47.0404C90.7737 46.6911 90.62 46.3939 90.3782 46.1487C90.1344 45.9127 89.812 45.75 89.4112 45.6607C89.0468 45.5795 88.7208 45.5834 88.4333 45.6723C88.1366 45.7592 87.887 45.9139 87.6844 46.1365L86.2182 44.9922C86.4451 44.6602 86.7485 44.3932 87.1282 44.1909C87.4989 43.9867 87.9155 43.8548 88.3782 43.7954C88.8389 43.745 89.3243 43.7767 89.8344 43.8904ZM78.7657 41.4237C79.4034 41.5658 79.9793 41.8136 80.4934 42.1672C80.9963 42.5279 81.405 42.9681 81.7195 43.4876C82.0249 44.0051 82.2129 44.5777 82.2834 45.2054L80.3744 45.5975C80.2431 44.985 79.9898 44.4695 79.6145 44.0512C79.2301 43.6308 78.7646 43.3598 78.218 43.2379C77.9265 43.173 77.6658 43.1627 77.436 43.2071C77.2061 43.2515 77.0147 43.3379 76.8618 43.4664C76.7068 43.604 76.605 43.7821 76.5563 44.0008C76.5035 44.2376 76.5317 44.4543 76.6409 44.6507C76.7481 44.8563 76.9454 45.0437 77.2328 45.2129L79.0817 46.3135C79.8336 46.7583 80.3607 47.2679 80.663 47.842C80.9633 48.4253 81.0374 49.0586 80.8851 49.7418C80.7511 50.3431 80.4876 50.839 80.0946 51.2295C79.6924 51.618 79.1988 51.8809 78.6135 52.0182C78.0192 52.1535 77.3759 52.144 76.6835 51.9897C76.0732 51.8537 75.5317 51.6231 75.0591 51.2978C74.5866 50.9726 74.2062 50.577 73.9179 50.1112C73.6206 49.6433 73.4362 49.1193 73.3646 48.5392L75.26 48.144C75.3457 48.6603 75.5504 49.0932 75.8742 49.4427C76.1959 49.8013 76.6027 50.0354 77.0946 50.145C77.3771 50.2079 77.6377 50.2182 77.8767 50.1758C78.1156 50.1335 78.3136 50.0389 78.4706 49.8922C78.6255 49.7546 78.7274 49.5765 78.7761 49.3579C78.8289 49.121 78.7982 48.8943 78.6839 48.6775C78.5676 48.4699 78.3658 48.2815 78.0784 48.1123L76.2644 47.0482C75.5034 46.6013 74.9752 46.0964 74.68 45.5333C74.3756 44.9682 74.2995 44.3441 74.4518 43.6608C74.5838 43.0687 74.8564 42.5749 75.2697 42.1793C75.6809 41.7928 76.1893 41.5284 76.7947 41.386C77.3891 41.2507 78.0461 41.2633 78.7657 41.4237ZM73.7352 40.4747L71.43 50.8189L69.3802 50.3621L70.3517 46.0031L70.5246 46.3858C70.252 46.7937 69.9011 47.0597 69.4718 47.1839C69.0313 47.3153 68.5515 47.3231 68.0322 47.2074C67.4674 47.0815 67.0018 46.8534 66.6356 46.5232C66.2602 46.1909 66.0018 45.7843 65.8604 45.3034C65.7169 44.8315 65.7081 44.3132 65.834 43.7484L66.9029 38.952L68.9526 39.4088L67.9811 43.7679C67.9162 44.0594 67.9195 44.3231 67.9913 44.5591C68.0539 44.7929 68.1768 44.9925 68.3599 45.1576C68.5339 45.3207 68.7576 45.4327 69.0309 45.4936C69.2951 45.5524 69.5451 45.546 69.781 45.4743C70.017 45.4026 70.2175 45.2751 70.3826 45.092C70.5386 44.9068 70.6491 44.6685 70.7141 44.377L71.6855 40.0179L73.7352 40.4747ZM61.8884 37.6624C62.6263 37.8269 63.2629 38.1456 63.7982 38.6187C64.3243 39.0898 64.7046 39.6574 64.9391 40.3217C65.1624 40.993 65.1908 41.7022 65.0243 42.4492C64.8558 43.2053 64.529 43.8353 64.0437 44.3391C63.5494 44.8409 62.9641 45.1934 62.2877 45.3965C61.6022 45.5975 60.8905 45.6158 60.1526 45.4514C59.4147 45.2869 58.7827 44.9692 58.2566 44.4981C57.7305 44.027 57.3547 43.4604 57.1294 42.7982C56.8949 42.134 56.8619 41.4238 57.0304 40.6677C57.1969 39.9207 57.5283 39.2917 58.0247 38.7808C58.5099 38.2769 59.0907 37.9234 59.767 37.7204C60.4434 37.5173 61.1505 37.498 61.8884 37.6624ZM61.4773 39.5072C61.1038 39.4239 60.7611 39.4384 60.4493 39.5506C60.1283 39.6607 59.8559 39.8534 59.632 40.1287C59.399 40.4018 59.2378 40.7389 59.1485 41.1397C59.0591 41.5405 59.063 41.9095 59.1599 42.2467C59.2458 42.5909 59.4106 42.8811 59.6545 43.1171C59.8871 43.3602 60.1902 43.5234 60.5637 43.6066C60.9373 43.6898 61.2855 43.6718 61.6085 43.5526C61.9295 43.4424 62.2065 43.2508 62.4395 42.9776C62.6614 42.7115 62.817 42.378 62.9063 41.9771C62.9956 41.5763 62.9974 41.2038 62.9115 40.8595C62.8166 40.5132 62.6472 40.2221 62.4033 39.9861C62.1595 39.75 61.8508 39.5904 61.4773 39.5072ZM54.82 36.2593L55.7262 44.2928L53.6082 43.8208L53.0043 38.0349L53.7391 38.213L50.5336 43.1356L48.7572 42.7397L47.9589 36.9248L48.6999 37.0756L45.6963 42.0575L43.5646 41.5825L47.81 34.6971L49.5864 35.093L50.3783 41.3224L49.6677 41.164L53.0436 35.8634L54.82 36.2593ZM41.4362 33.1045C42.2561 33.2872 42.9286 33.6379 43.4537 34.1565C43.9676 34.6823 44.2608 35.2974 44.3333 36.0021L42.6718 36.3777C42.5698 35.9342 42.3803 35.562 42.1031 35.2612C41.8259 34.9604 41.4868 34.7653 41.086 34.676C40.7945 34.611 40.5581 34.6205 40.3768 34.7044C40.1956 34.7883 40.0816 34.935 40.0349 35.1445C40.0106 35.2539 40.0176 35.3511 40.056 35.4361C40.0924 35.5303 40.1581 35.6214 40.2532 35.7096C40.3483 35.7977 40.4728 35.8828 40.6266 35.9649L41.8183 36.6034C42.3901 36.9125 42.7973 37.2949 43.04 37.7506C43.2807 38.2154 43.3421 38.712 43.2244 39.2404C43.1208 39.705 42.912 40.084 42.598 40.3774C42.284 40.6708 41.8916 40.8654 41.4208 40.9613C40.948 41.0663 40.4337 41.0569 39.878 40.933C39.1493 40.7706 38.5501 40.4554 38.0807 39.9874C37.6001 39.5265 37.315 38.961 37.2253 38.2907L38.9004 37.9182C38.9407 38.2523 39.0863 38.5429 39.3372 38.7901C39.577 39.0443 39.8791 39.212 40.2435 39.2933C40.5077 39.3521 40.7294 39.3442 40.9086 39.2694C41.0787 39.1925 41.1851 39.0585 41.2277 38.8671C41.2501 38.7669 41.243 38.6697 41.2067 38.5756C41.1703 38.4814 41.1 38.3892 40.9957 38.2991C40.8824 38.2069 40.7407 38.1132 40.5707 38.0179L39.4611 37.3977C38.8822 37.0774 38.4704 36.694 38.2257 36.2474C37.979 35.8099 37.9155 35.3224 38.0353 34.785C38.1388 34.3204 38.3521 33.9424 38.6752 33.651C38.9892 33.3576 39.3827 33.1584 39.8555 33.0534C40.3263 32.9576 40.8532 32.9746 41.4362 33.1045Z" fill="white"/>
</svg>
